<?xml version="1.0" standalone="no"?><!DOCTYPE svg PUBLIC "-//W3C//DTD SVG 1.1//EN" "http://www.w3.org/Graphics/SVG/1.1/DTD/svg11.dtd"><svg t="1596779919379" class="icon" viewBox="0 0 1024 1024" version="1.1" xmlns="http://www.w3.org/2000/svg" p-id="2828" xmlns:xlink="http://www.w3.org/1999/xlink" width="200" height="200"><defs><style type="text/css"></style></defs><path d="M512.361327 5.058574C234.139732 5.058574 5.058574 234.139732 5.058574 512.361327S234.139732 1018.941426 512.361327 1018.941426 1018.941426 789.860268 1018.941426 512.361327 789.860268 5.058574 512.361327 5.058574z m0 213.182781c74.43331 0 133.690896 58.534933 133.690896 133.690896s-58.534933 133.690896-133.690896 133.690896S378.67043 426.365561 378.67043 351.932251s58.534933-133.690896 133.690897-133.690896z m229.081157 502.244178c-21.679605 42.636556-127.909668 80.214538-229.803811 85.273112-106.952717-5.058574-213.182781-42.636556-234.862385-85.273112-48.417784-91.05434 112.011291-181.386027 234.862385-181.386027s278.221595 90.331687 229.803811 181.386027z" p-id="2829"></path></svg>